<svg xmlns="http://www.w3.org/2000/svg" viewBox="0 0 340 52" fill="none" role="img" aria-label="StockSense">
  <title>StockSense</title>
  <defs>
    <filter id="senseGlow" x="-25%" y="-50%" width="150%" height="200%">
      <feGaussianBlur stdDeviation="1.4" result="blur"/>
      <feMerge>
        <feMergeNode in="blur"/>
        <feMergeNode in="SourceGraphic"/>
      </feMerge>
    </filter>
  </defs>
  <g transform="translate(0 5) scale(0.88)" filter="url(#senseGlow)" fill="none" stroke="#5dde8a" stroke-linecap="round" stroke-linejoin="round">
    <path d="M5 21C14 8.5 27 4 40 4c10.5 0 20 4.2 30 12.5 2.8 2.3 4.6 4.2 5 4.5" stroke-width="3.2"/>
    <path d="M9 23.5C17 34.5 28 38.5 40 38.5c9.5 0 18.5-3.2 27-10.5 3.2-2.7 5.8-5.5 7-7" stroke-width="3.2"/>
    <path d="M26 16.5c6.5-4.2 14-5 22-2.8" stroke-width="2.4"/>
    <path d="M27 26c6.5 4 14.5 4.5 22.5 1.2" stroke-width="2.4"/>
    <circle cx="42" cy="21" r="4.6" fill="#5dde8a" stroke="none"/>
  </g>
  <text x="78" y="30" font-family="IBM Plex Sans, Segoe UI, sans-serif" font-size="28" font-weight="600" letter-spacing="0.08em" fill="#ffffff">Stock</text>
  <text x="168" y="38" font-family="IBM Plex Sans, Segoe UI, sans-serif" font-size="20" font-weight="600" letter-spacing="0.06em" fill="#5dde8a" filter="url(#senseGlow)">$ense</text>
</svg>
